<?xml version="1.0" encoding="iso-8859-1"?>
<!-- Generator: Adobe Illustrator 19.0.0, SVG Export Plug-In . SVG Version: 6.00 Build 0)  -->
<svg xmlns="http://www.w3.org/2000/svg" xmlns:xlink="http://www.w3.org/1999/xlink" version="1.1" id="Capa_1" x="0px" y="0px" viewBox="0 0 436.8 436.8" style="enable-background:new 0 0 436.8 436.8;" xml:space="preserve" width="512px" height="512px">
<g>
	<g>
		<g>
			<path d="M370,0H102.4c-20,0-36,16.4-36,36v26.8h16c10.8,0,19.6,8.8,19.6,19.6S93.2,102,82.4,102h-16v28.8h16     c10.8,0,19.6,8.8,19.6,19.6c0,10.8-8.8,19.6-19.6,19.6h-16v28.8h16c10.8,0,19.6,8.8,19.6,19.6c0,10.8-8.8,19.6-19.6,19.6h-16     v-38.8h-16v0c-10.8,0-19.6,8.8-19.6,19.6s8.8,19.6,19.6,19.6h16v28.4h16c10.8,0,19.6,8.8,19.6,19.6S93.2,306,82.4,306h-16v-38.8     h-16c-10.8,0-19.6,8.8-19.6,19.6c0,10.8,8.8,19.6,19.6,19.6h16v28.4h16c10.8,0,19.6,8.8,19.6,19.6S93.2,374,82.4,374h-16v-38.4     h-16c-10.8,0-19.6,8.8-19.6,19.6s8.8,19.6,19.6,19.6h16v26c0,20,16.4,36,36,36H370c20,0,36-16.4,36-36V36C406,16.4,390,0,370,0z      M325.6,305.6C266.8,338,161.2,240.4,152.8,180c-3.6-24.4,36.4-76.8,51.2-44l15.2,34c7.2,18.8-14.8,24-14.4,34     c0.4,6.8,16.8,26.8,20.8,30.8c8,8.8,32.8,28.4,46,31.6c6.4,1.6,11.6-6.4,14.4-9.6c12-12.8,12.4-16.8,23.6-10.8l34,18.4     C356.4,272.8,338.4,298.4,325.6,305.6z" fill="#FFFFFF"/>
			<path d="M50.4,62.8c-10.8,0-19.6,8.8-19.6,19.6S39.6,102,50.4,102h16V62.8H50.4z" fill="#FFFFFF"/>
			<path d="M50.4,130.8c-10.8,0-19.6,8.8-19.6,19.6c0,10.8,8.8,19.6,19.6,19.6h16v-39.2H50.4z" fill="#FFFFFF"/>
		</g>
	</g>
</g>
<g>
</g>
<g>
</g>
<g>
</g>
<g>
</g>
<g>
</g>
<g>
</g>
<g>
</g>
<g>
</g>
<g>
</g>
<g>
</g>
<g>
</g>
<g>
</g>
<g>
</g>
<g>
</g>
<g>
</g>
</svg>
