<?xml version="1.0" encoding="iso-8859-1"?>
<!-- Generator: Adobe Illustrator 19.0.0, SVG Export Plug-In . SVG Version: 6.00 Build 0)  -->
<svg version="1.1" id="Capa_1" xmlns="http://www.w3.org/2000/svg" xmlns:xlink="http://www.w3.org/1999/xlink" x="0px" y="0px"
	 viewBox="0 0 512 512" style="enable-background:new 0 0 512 512;" xml:space="preserve">
<path style="fill:#152C49;" d="M502.354,476.912c-1.893,5.76-5.129,11.163-9.708,15.742c-7.805,7.805-18.052,11.712-28.289,11.712
	c-10.247,0-20.484-3.908-28.299-11.712L325.957,382.541l56.588-56.588l110.102,110.112
	C503.698,447.117,506.933,463.022,502.354,476.912z"/>
<path style="fill:#1F3B63;" d="M502.354,476.912c-4.07,1.343-8.314,2.015-12.557,2.015c-10.247,0-20.484-3.908-28.299-11.712
	L351.396,357.102l31.148-31.148l110.102,110.112C503.698,447.117,506.933,463.022,502.354,476.912z"/>
<circle style="fill:#E1E8EF;" cx="212.288" cy="212.288" r="204.656"/>
<circle style="fill:#25C2CE;" cx="212.288" cy="212.288" r="158.244"/>
<path style="fill:#19A2A5;" d="M143.134,324.189c-61.799-61.799-61.799-161.994,0-223.793c25.451-25.451,57.415-40.41,90.527-44.898
	c-47.288-6.409-96.917,8.55-133.265,44.898c-61.799,61.799-61.799,161.994,0,223.793c36.348,36.348,85.977,51.306,133.265,44.898
	C200.55,364.599,168.586,349.64,143.134,324.189z"/>
<g>
	<path style="fill:#F4E662;" d="M177.388,253.312c-0.148,0.056-0.295,0.112-0.443,0.167c-13.126,4.96-27.74-2.629-31.019-16.272
		c-7.719-32.128-7.719-65.64,0-97.768c3.279-13.644,17.893-21.232,31.019-16.272c0.148,0.056,0.295,0.112,0.443,0.167
		c10.994,4.155,17.26,15.824,14.522,27.254c-5.944,24.801-5.944,50.667,0,75.469C194.648,237.486,188.382,249.157,177.388,253.312z"
		/>
	<circle style="fill:#F4E662;" cx="290.041" cy="199.415" r="23.404"/>
	<circle style="fill:#F4E662;" cx="223.583" cy="304.898" r="28.645"/>
</g>
<path d="M67.372,253.853c-1.159-4.053-5.382-6.401-9.435-5.242c-4.053,1.158-6.4,5.383-5.242,9.435
	c7.696,26.932,22.295,51.699,42.219,71.623c31.353,31.353,73.038,48.619,117.377,48.619s86.024-17.266,117.377-48.619
	s48.619-73.038,48.619-117.377s-17.266-86.025-48.619-117.377c-31.353-31.353-73.038-48.619-117.377-48.619
	S126.268,63.563,94.915,94.916C59.44,130.39,42.037,179.389,47.169,229.349c0.43,4.193,4.183,7.236,8.372,6.813
	c4.193-0.43,7.243-4.179,6.813-8.372c-4.661-45.371,11.143-89.868,43.355-122.081c28.47-28.47,66.322-44.149,106.584-44.149
	c40.262,0,78.115,15.679,106.584,44.149s44.149,66.322,44.149,106.584c0,40.262-15.679,78.115-44.149,106.584
	c-28.47,28.47-66.322,44.149-106.585,44.149s-78.115-15.679-106.584-44.149C87.614,300.782,74.357,278.297,67.372,253.853z"/>
<path d="M498.045,430.667L392.263,324.884c40.921-65.457,43.764-149.75,3.994-218.643c-2.107-3.651-6.776-4.901-10.425-2.794
	c-3.65,2.107-4.902,6.775-2.794,10.425c44.459,77.016,31.538,174.778-31.425,237.741c-37.214,37.214-86.692,57.708-139.32,57.708
	s-102.107-20.495-139.321-57.708s-57.708-86.692-57.708-139.32s20.494-102.106,57.708-139.32s86.692-57.709,139.321-57.709
	c52.628,0,102.106,20.495,139.32,57.708c5.513,5.514,10.741,11.391,15.534,17.467c2.61,3.309,7.409,3.875,10.719,1.265
	c3.309-2.611,3.875-7.41,1.265-10.719c-5.162-6.544-10.789-12.87-16.725-18.805C322.309,22.083,268.998,0,212.293,0
	C155.587,0,102.276,22.083,62.179,62.179S0,155.587,0,212.293S22.083,322.31,62.178,362.406s93.408,62.179,150.114,62.179
	c40.468,0,79.203-11.254,112.644-32.269l105.73,105.728c8.998,8.998,20.963,13.955,33.689,13.955
	c12.727,0,24.692-4.957,33.69-13.955c8.999-8.998,13.955-20.963,13.955-33.689C512,451.63,507.044,439.665,498.045,430.667z
	 M487.252,487.252c-6.116,6.116-14.247,9.484-22.897,9.484c-8.649,0-16.781-3.368-22.897-9.484l-103.681-103.68
	c8.652-6.367,16.889-13.427,24.628-21.166c7.757-7.757,14.801-16.01,21.136-24.658l103.711,103.711
	C499.878,454.084,499.878,474.627,487.252,487.252z"/>
<path d="M160.544,149.753c1.255,2.975,4.286,4.899,7.525,4.694c3.013-0.19,5.689-2.196,6.704-5.042
	c2.356-6.612-5.091-12.714-11.098-9.112C160.452,142.225,159.154,146.28,160.544,149.753z"/>
<path d="M242.652,132.078c1.862,2.729,5.34,4.035,8.526,3.075c2.882-0.868,5.01-3.392,5.393-6.376
	c0.882-6.856-7.506-11.184-12.643-6.64C241.111,124.63,240.59,128.949,242.652,132.078z"/>
<path d="M256.705,234.864c-3.647-5.672-12.508-3.681-13.829,2.737c-1.409,6.844,6.769,11.742,12.209,7.486
	C258.161,242.681,258.893,238.105,256.705,234.864z"/>
<path d="M129.162,284.379c-1.821-2.764-5.398-4.031-8.559-3.062c-2.935,0.901-5.056,3.506-5.374,6.553
	c-0.316,3.043,1.319,6.034,3.998,7.473c3.031,1.628,6.876,0.968,9.209-1.558C130.808,291.217,131.076,287.287,129.162,284.379z"/>
<path d="M220.673,297.852c-2.874,1.186-4.797,4.125-4.716,7.239c0.08,3.128,2.133,5.932,5.064,6.992
	c2.928,1.058,6.317,0.162,8.344-2.197c2.211-2.571,2.446-6.391,0.569-9.215C227.928,297.657,224.015,296.514,220.673,297.852z"/>
<path d="M241.526,214.157c1,3.293,4.028,5.415,7.299,5.415c0.736,0,1.483-0.107,2.222-0.332l12.43-3.778
	c5.619,9.298,15.781,14.989,26.583,14.989c0.473,0,0.949-0.031,1.425-0.052l3.783,12.448c1,3.293,4.028,5.415,7.299,5.415
	c0.736,0,1.483-0.107,2.222-0.332c4.033-1.226,6.308-5.489,5.083-9.521l-3.778-12.432c9.706-5.866,15.479-16.683,14.952-28.011
	l12.432-3.778c4.033-1.226,6.308-5.489,5.083-9.521c-1.226-4.034-5.49-6.31-9.522-5.083l-12.431,3.778
	c-5.865-9.707-16.681-15.481-28.012-14.953l-3.778-12.432c-1.226-4.034-5.49-6.308-9.522-5.083
	c-4.033,1.226-6.308,5.489-5.083,9.522l3.775,12.422c-4.745,2.855-8.649,6.947-11.326,11.96c-2.675,5.013-3.902,10.534-3.634,16.066
	l-12.422,3.775C242.575,205.861,240.3,210.123,241.526,214.157z M305.134,194.824c2.529,8.321-2.184,17.148-10.504,19.678
	c-8.323,2.529-17.149-2.184-19.678-10.504c-1.225-4.031-0.807-8.297,1.177-12.014c1.984-3.717,5.296-6.438,9.328-7.663
	c1.523-0.463,3.063-0.683,4.578-0.683C296.798,183.636,303.068,188.026,305.134,194.824z"/>
<path d="M114.588,211.684c0.544,3.807,3.809,6.552,7.545,6.552c0.359,0,0.723-0.025,1.09-0.078l11.164-1.597
	c0.718,5.504,1.628,10.983,2.769,16.416l-5.453,2.644c-3.793,1.839-5.377,6.404-3.538,10.197c1.319,2.72,4.04,4.304,6.873,4.304
	c1.117,0,2.251-0.246,3.324-0.766l3.663-1.776c2.865,4.782,7.003,8.761,12.042,11.428c4.539,2.404,9.549,3.619,14.576,3.619
	c3.717,0,7.445-0.665,10.996-2.008l0.443-0.167c0.001,0,0.003-0.001,0.004-0.002c11.899-4.496,19.594-15.666,20.068-27.826
	l6.474-0.892c4.176-0.576,7.094-4.427,6.518-8.603c-0.576-4.175-4.429-7.094-8.603-6.518l-6.65,0.917
	c-1.555-8.091-2.47-16.305-2.717-24.542l5.152-0.576c4.188-0.468,7.204-4.243,6.736-8.433s-4.242-7.21-8.433-6.736l-3.142,0.351
	c0.44-6.356,1.27-12.681,2.491-18.932l7.755,0.538c0.18,0.012,0.358,0.019,0.536,0.019c3.974,0,7.327-3.079,7.605-7.104
	c0.292-4.205-2.881-7.85-7.085-8.142l-6.666-0.463c-0.667-11.961-8.305-22.879-20.023-27.307l-0.458-0.173
	c-8.355-3.159-17.679-2.571-25.577,1.609c-5.523,2.924-9.965,7.421-12.831,12.827l-5.1-1.225c-4.099-0.984-8.219,1.541-9.203,5.638
	c-0.984,4.099,1.541,8.219,5.638,9.203l4.298,1.032c-1.43,7.05-2.497,14.172-3.217,21.33l-8.093-0.749
	c-4.195-0.384-7.914,2.7-8.302,6.896c-0.388,4.198,2.7,7.914,6.896,8.302l8.484,0.785c-0.199,6.558-0.104,13.126,0.287,19.675
	l-11.862,1.696C116.89,203.645,113.99,207.511,114.588,211.684z M161.207,131.127c2.314-1.225,4.867-1.845,7.43-1.845
	c1.897,0,3.8,0.34,5.614,1.026l0.438,0.166c7.419,2.803,11.631,10.687,9.797,18.337c-6.194,25.85-6.194,53.177,0,79.026
	c1.834,7.65-2.378,15.533-9.797,18.337l-0.443,0.167c-4.26,1.609-9.013,1.311-13.039-0.821c-4.015-2.126-6.808-5.711-7.861-10.095
	c-7.404-30.813-7.404-63.387,0-94.202C154.4,136.838,157.192,133.252,161.207,131.127z"/>
<path d="M187.313,304.903c0,20.002,16.273,36.275,36.275,36.275s36.275-16.273,36.275-36.275s-16.273-36.275-36.275-36.275
	S187.313,284.901,187.313,304.903z M244.599,304.903c0,11.585-9.426,21.011-21.011,21.011s-21.011-9.426-21.011-21.011
	s9.426-21.011,21.011-21.011S244.599,293.318,244.599,304.903z"/>
<g>
</g>
<g>
</g>
<g>
</g>
<g>
</g>
<g>
</g>
<g>
</g>
<g>
</g>
<g>
</g>
<g>
</g>
<g>
</g>
<g>
</g>
<g>
</g>
<g>
</g>
<g>
</g>
<g>
</g>
</svg>
