<?xml version="1.0" encoding="iso-8859-1"?>
<!-- Generator: Adobe Illustrator 19.0.0, SVG Export Plug-In . SVG Version: 6.00 Build 0)  -->
<svg version="1.1" id="Capa_1" xmlns="http://www.w3.org/2000/svg" xmlns:xlink="http://www.w3.org/1999/xlink" x="0px" y="0px"
	 viewBox="0 0 468.293 468.293" style="enable-background:new 0 0 468.293 468.293;" xml:space="preserve">
<polygon style="fill:#EBF0F3;" points="123.005,342.166 128,347.161 8.117,466.419 0,465.171 "/>
<g>
	<path style="fill:#64798A;" d="M102.4,356.527l10.615,10.615c4.995,4.995,13.737,4.995,18.732,0l14.985-14.361l-29.971-29.971
		L102.4,337.171C97.405,342.79,97.405,351.532,102.4,356.527z"/>
	
		<rect x="338.372" y="64.742" transform="matrix(-0.7071 0.7071 -0.7071 -0.7071 679.0868 -35.0422)" style="fill:#64798A;" width="16.858" height="116.76"/>
</g>
<polygon style="fill:#EBF0F3;" points="370.263,159.22 161.717,367.766 131.746,337.795 102.4,308.449 310.946,99.902 
	340.293,129.249 "/>
<polygon style="fill:#E1E6E9;" points="468.293,61.815 457.054,73.054 438.946,54.946 382.127,146.732 352.78,117.385 
	322.81,87.415 414.595,30.595 397.112,13.112 408.351,1.873 "/>
<path style="fill:#DC8744;" d="M263.493,265.366l-101.776,102.4L102.4,308.449l101.776-101.776c0,0,26.224,27.473,51.824,20.605
	C265.366,224.156,298.459,230.4,263.493,265.366z"/>
<g>
	
		<rect x="330.908" y="143.999" transform="matrix(-0.7071 0.7071 -0.7071 -0.7071 687.9042 44.8916)" style="fill:#D5D6DB;" width="7.493" height="41.834"/>
	
		<rect x="301.506" y="147.806" transform="matrix(-0.7071 0.7071 -0.7071 -0.7071 647.9081 90.3016)" style="fill:#D5D6DB;" width="7.493" height="63.063"/>
	
		<rect x="287.132" y="187.702" transform="matrix(-0.7071 0.7071 -0.7071 -0.7071 644.077 150.4525)" style="fill:#D5D6DB;" width="7.493" height="41.834"/>
	
		<rect x="257.73" y="191.497" transform="matrix(-0.7071 0.7071 -0.7071 -0.7071 604.0721 195.8413)" style="fill:#D5D6DB;" width="7.493" height="63.063"/>
	
		<rect x="242.915" y="231.847" transform="matrix(-0.7071 0.7071 -0.7071 -0.7071 599.8083 257.0794)" style="fill:#D5D6DB;" width="7.493" height="41.834"/>
	
		<rect x="213.954" y="235.175" transform="matrix(-0.7071 0.7071 -0.7071 -0.7071 560.2272 301.3596)" style="fill:#D5D6DB;" width="7.493" height="63.063"/>
	
		<rect x="199.145" y="275.488" transform="matrix(-0.7071 0.7071 -0.7071 -0.7071 555.9476 362.5294)" style="fill:#D5D6DB;" width="7.493" height="41.834"/>
	
		<rect x="169.736" y="279.295" transform="matrix(-0.7071 0.7071 -0.7071 -0.7071 515.9408 407.9438)" style="fill:#D5D6DB;" width="7.493" height="63.063"/>
	
		<rect x="155.369" y="319.179" transform="matrix(-0.7071 0.7071 -0.7071 -0.7071 512.1115 468.069)" style="fill:#D5D6DB;" width="7.493" height="41.834"/>
</g>
<g>
</g>
<g>
</g>
<g>
</g>
<g>
</g>
<g>
</g>
<g>
</g>
<g>
</g>
<g>
</g>
<g>
</g>
<g>
</g>
<g>
</g>
<g>
</g>
<g>
</g>
<g>
</g>
<g>
</g>
</svg>
