<?xml version="1.0" encoding="iso-8859-1"?>
<!-- Generator: Adobe Illustrator 19.0.0, SVG Export Plug-In . SVG Version: 6.00 Build 0)  -->
<svg version="1.1" id="Layer_1" xmlns="http://www.w3.org/2000/svg" xmlns:xlink="http://www.w3.org/1999/xlink" x="0px" y="0px"
	 viewBox="0 0 512 512" style="enable-background:new 0 0 512 512;" xml:space="preserve">
<path style="fill:#DCEAE9;" d="M63.351,242.41l16.154-16.197c2.054-2.06,4.84-3.217,7.745-3.217h0.607
	c2.905,0,5.691,1.157,7.745,3.217l16.154,16.197l16.154-16.197c2.054-2.06,4.84-3.217,7.745-3.217h0.607
	c2.905,0,5.691,1.157,7.745,3.217l16.154,16.197l16.154-16.197c2.054-2.06,4.84-3.217,7.745-3.217h0.607
	c2.905,0,5.691,1.157,7.745,3.217l16.154,16.197l16.154-16.197c2.054-2.06,4.84-3.217,7.745-3.217h0.607
	c2.905,0,5.691,1.157,7.745,3.217l16.154,16.197l16.154-16.197c2.054-2.06,4.84-3.217,7.745-3.217l0,0
	c6.049,0,10.953,4.917,10.953,10.982V463.73l-234.277,1.942c-16.04,0-29.043-13.038-29.043-29.121V233.978
	c0-6.065,4.904-10.982,10.953-10.982l0,0c2.905,0,5.691,1.157,7.745,3.217L63.351,242.41z"/>
<path style="fill:#C5D3D2;" d="M66.255,239.438l13.028-13.016c2.196-2.194,5.17-3.426,8.269-3.426l0,0
	c3.1,0,6.073,1.232,8.269,3.426l9.156,9.147v229.213H66.255V239.438z"/>
<path style="fill:#F9F9F9;" d="M291.819,465.672H86.585H57.543c16.04,0,29.043-13.038,29.043-29.121v-58.242V17.207
	c0-5.361,4.334-9.707,9.681-9.707h1.799c2.568,0,5.03,1.023,6.845,2.843l16.526,16.571l16.526-16.571
	c1.816-1.82,4.278-2.843,6.845-2.843h1.661c2.568,0,5.03,1.023,6.845,2.843l16.526,16.571l16.526-16.571
	c1.816-1.82,4.278-2.843,6.845-2.843h1.661c2.568,0,5.03,1.023,6.845,2.843l16.526,16.571l16.526-16.571
	c1.816-1.82,4.278-2.843,6.845-2.843h1.661c2.568,0,5.03,1.023,6.845,2.843l16.526,16.571l16.526-16.571
	c1.816-1.82,4.278-2.843,6.845-2.843h1.661c2.568,0,5.03,1.023,6.845,2.843l16.526,16.571l16.526-16.571
	c1.816-1.82,4.278-2.843,6.845-2.843h1.799c5.347,0,9.681,4.346,9.681,9.707v429.051c0,10.722-8.669,19.414-19.362,19.414H291.819z"
	/>
<path style="fill:#FFC08C;" d="M261.002,109.424c0,24.175-19.615,43.843-43.725,43.843s-43.725-19.668-43.725-43.843
	s19.615-43.844,43.725-43.844S261.002,85.248,261.002,109.424z"/>
<path style="fill:#F3F3FF;" d="M349.904,17.207v145.605v283.445c0,10.722-8.669,19.414-19.362,19.414V162.958v-27.326V11.383
	l1.037-1.04c1.816-1.821,4.278-2.843,6.845-2.843h1.799C345.57,7.5,349.904,11.846,349.904,17.207z"/>
<path style="fill:#FFA04E;" d="M464.138,240.469v244.617c0,10.722-8.669,19.414-19.362,19.414h-125.85
	c-10.693,0-19.362-8.692-19.362-19.414v-50.477c0-5.361,4.334-9.707,9.681-9.707h8.713V318.125h-8.713
	c-5.347,0-9.681-4.346-9.681-9.707v-67.949H464.138z"/>
<path style="fill:#EF8141;" d="M464.138,240.469v244.617c0,10.722-8.669,19.414-19.362,19.414h-19.362
	c10.693,0,19.362-8.692,19.362-19.414V318.125c0-16.083-13.003-29.121-29.043-29.121h-116.17v-38.828h145.213v-9.707H464.138z"/>
<path style="fill:#EAEAEA;" d="M333.766,182.227h96.17c5.523,0,10,4.477,10,10v48.242h-116.17v-48.242
	C323.766,186.704,328.243,182.227,333.766,182.227z"/>
<path style="fill:#DDDDDD;" d="M483.5,221.055v38.828c0,5.361-4.334,9.707-9.681,9.707h-12.101l0,0c0-3.217-2.601-5.824-5.809-5.824
	h-2.904c-3.208,0-5.809,2.608-5.809,5.824l0,0h-14.521l0,0c0-3.217-2.601-5.824-5.809-5.824h-2.904
	c-3.208,0-5.809,2.608-5.809,5.824l0,0h-14.521l0,0c0-3.217-2.601-5.824-5.809-5.824h-2.904c-3.208,0-5.809,2.608-5.809,5.824l0,0
	h-14.52l0,0c0-3.217-2.601-5.824-5.809-5.824h-2.904c-3.208,0-5.809,2.608-5.809,5.824l0,0h-14.521l0,0
	c0-3.217-2.601-5.824-5.809-5.824h-2.904c-3.208,0-5.809,2.608-5.809,5.824l0,0h-14.521l0,0c0-3.217-2.601-5.824-5.809-5.824h-2.904
	c-3.208,0-5.809,2.608-5.809,5.824l0,0h-12.101c-5.347,0-9.681-4.346-9.681-9.707v-38.828c0-5.361,4.334-9.707,9.681-9.707h121.011
	c5.347,0,9.681-4.346,9.681-9.707v-19.414h9.681c5.347,0,9.681,4.346,9.681,9.707v19.414h33.883
	C479.166,211.348,483.5,215.694,483.5,221.055z"/>
<path style="fill:#FFFCEE;" d="M299.564,308.418h164.574v126.191H299.564V308.418z"/>
<path style="fill:#FFEF9F;" d="M444.777,308.418h19.362v126.191h-19.362V308.418z"/>
<path d="M231.798,267.383H125.309c-4.142,0-7.5-3.357-7.5-7.5s3.358-7.5,7.5-7.5h106.489c4.142,0,7.5,3.357,7.5,7.5
	S235.94,267.383,231.798,267.383z M125.309,228.555h67.766c4.142,0,7.5-3.357,7.5-7.5s-3.358-7.5-7.5-7.5h-67.766
	c-4.142,0-7.5,3.357-7.5,7.5S121.167,228.555,125.309,228.555z M125.309,296.504h58.085c4.142,0,7.5-3.357,7.5-7.5
	s-3.358-7.5-7.5-7.5h-58.085c-4.142,0-7.5,3.357-7.5,7.5S121.167,296.504,125.309,296.504z M236.638,101.924h-11.862V90.01
	c0-4.143-3.358-7.5-7.5-7.5s-7.5,3.357-7.5,7.5v11.914h-11.861c-4.142,0-7.5,3.357-7.5,7.5s3.358,7.5,7.5,7.5h11.861v11.914
	c0,4.143,3.358,7.5,7.5,7.5s7.5-3.357,7.5-7.5v-11.914h11.862c4.142,0,7.5-3.357,7.5-7.5S240.78,101.924,236.638,101.924z
	 M125.309,354.746h67.766c4.142,0,7.5-3.357,7.5-7.5s-3.358-7.5-7.5-7.5h-67.766c-4.142,0-7.5,3.357-7.5,7.5
	S121.167,354.746,125.309,354.746z M269.554,458.172H87.02c4.44-6.063,7.065-13.541,7.065-21.621V17.5c0-1.379,1.122-2.5,2.5-2.5
	h1.339c0.659,0,1.305,0.268,1.77,0.734l16.431,16.476c1.407,1.411,3.318,2.204,5.311,2.204s3.903-0.793,5.311-2.204l16.43-16.475
	c0.473-0.474,1.102-0.735,1.771-0.735h1.381c0.659,0,1.305,0.268,1.77,0.734L164.53,32.21c1.407,1.411,3.318,2.204,5.311,2.204
	s3.903-0.793,5.311-2.204l16.431-16.475c0.466-0.468,1.111-0.735,1.771-0.735h1.381c0.659,0,1.305,0.268,1.77,0.734l16.431,16.476
	c1.407,1.411,3.318,2.204,5.311,2.204s3.903-0.793,5.311-2.204l16.431-16.475C240.455,15.267,241.1,15,241.76,15h1.381
	c0.659,0,1.305,0.268,1.77,0.734l16.431,16.476c1.407,1.411,3.318,2.204,5.311,2.204s3.903-0.793,5.311-2.204l16.431-16.475
	c0.466-0.468,1.111-0.735,1.771-0.735h1.381c0.659,0,1.305,0.268,1.77,0.734l16.431,16.476c1.407,1.411,3.318,2.204,5.311,2.204
	s3.903-0.793,5.311-2.204l16.431-16.475c0.466-0.468,1.111-0.735,1.771-0.735h1.339c1.378,0,2.5,1.121,2.5,2.5v135.605
	c0,4.143,3.358,7.5,7.5,7.5s7.5-3.357,7.5-7.5V17.5c0-9.649-7.851-17.5-17.5-17.5h-1.339c-4.615,0-9.131,1.874-12.391,5.143
	l-11.121,11.15L303.932,5.142C300.673,1.874,296.157,0,291.542,0h-1.381c-4.615,0-9.131,1.874-12.391,5.143l-11.121,11.15
	L255.528,5.142C252.269,1.874,247.752,0,243.137,0h-1.381c-4.615,0-9.131,1.874-12.391,5.143l-11.121,11.15l-11.12-11.151
	C203.864,1.874,199.348,0,194.733,0h-1.381c-4.615,0-9.131,1.874-12.391,5.143l-11.121,11.15L158.719,5.142
	C155.46,1.874,150.944,0,146.329,0h-1.381c-4.682,0-9.083,1.826-12.391,5.143l-11.121,11.15L110.315,5.142
	C107.056,1.874,102.54,0,97.924,0h-1.339c-9.649,0-17.5,7.851-17.5,17.5v419.051c0,11.922-9.664,21.621-21.542,21.621
	S36,448.473,36,436.551V232.996c0-1.379,1.122-2.5,2.5-2.5h1.339c0.659,0,1.305,0.268,1.77,0.734l16.431,16.476
	c2.925,2.934,7.674,2.939,10.607,0.015c2.933-2.925,2.939-7.674,0.014-10.606L52.23,220.638c-3.259-3.268-7.775-5.142-12.391-5.142
	H38.5c-9.649,0-17.5,7.851-17.5,17.5v203.555c0,20.193,16.393,36.621,36.542,36.621h212.011c4.142,0,7.5-3.357,7.5-7.5
	S273.696,458.172,269.554,458.172z M491,221.348v38.242c0,9.649-7.851,17.5-17.5,17.5h-1.862v207.996
	c0,14.841-12.05,26.914-26.862,26.914H318.925c-14.812,0-26.861-12.073-26.861-26.914V277.09h-1.862c-9.649,0-17.5-7.851-17.5-17.5
	v-38.242c0-9.649,7.851-17.5,17.5-17.5h26.064v-11.621c0-9.649,7.851-17.5,17.5-17.5h96.17c9.649,0,17.5,7.851,17.5,17.5v11.621
	H473.5C483.149,203.848,491,211.698,491,221.348z M432.915,262.09h14.042v-43.242h-14.042V262.09z M331.266,203.848h94.149h7.021
	v-11.621c0-1.379-1.122-2.5-2.5-2.5h-96.17c-1.378,0-2.5,1.121-2.5,2.5V203.848z M403.873,218.848v43.242h14.042v-43.242
	L403.873,218.848L403.873,218.848z M374.83,218.848v43.242h14.043v-43.242L374.83,218.848L374.83,218.848z M345.787,218.848v43.242
	h14.042v-43.242L345.787,218.848L345.787,218.848z M316.745,262.09h14.042v-43.242h-14.042V262.09z M301.745,218.848h-11.542
	c-1.378,0-2.5,1.121-2.5,2.5v38.242c0,1.379,1.122,2.5,2.5,2.5h11.542V218.848z M456.638,442.109H307.064v42.977
	c0,6.569,5.321,11.914,11.861,11.914h125.851c6.541,0,11.862-5.345,11.862-11.914V442.109z M456.638,315.918H307.064v111.191
	h149.574V315.918z M456.638,277.09H307.064v23.828h149.574V277.09z M476,221.348c0-1.379-1.122-2.5-2.5-2.5h-11.542v43.242H473.5
	c1.378,0,2.5-1.121,2.5-2.5V221.348z M338.287,354.746h87.128c4.142,0,7.5-3.357,7.5-7.5s-3.358-7.5-7.5-7.5h-87.128
	c-4.142,0-7.5,3.357-7.5,7.5S334.145,354.746,338.287,354.746z M270.521,378.574H125.309c-4.142,0-7.5,3.357-7.5,7.5
	s3.358,7.5,7.5,7.5h145.213c4.142,0,7.5-3.357,7.5-7.5S274.664,378.574,270.521,378.574z M217.276,160.605
	c-28.157,0-51.063-22.96-51.063-51.182s22.907-51.182,51.063-51.182s51.064,22.96,51.064,51.182S245.433,160.605,217.276,160.605z
	 M253.34,109.424c0-19.95-16.178-36.182-36.064-36.182c-19.885,0-36.063,16.231-36.063,36.182s16.178,36.182,36.063,36.182
	C237.162,145.605,253.34,129.374,253.34,109.424z M401.213,368.867h-38.724c-4.142,0-7.5,3.357-7.5,7.5s3.358,7.5,7.5,7.5h38.724
	c4.142,0,7.5-3.357,7.5-7.5S405.355,368.867,401.213,368.867z M231.798,422.695c4.142,0,7.5-3.357,7.5-7.5s-3.358-7.5-7.5-7.5
	H125.309c-4.142,0-7.5,3.357-7.5,7.5s3.358,7.5,7.5,7.5H231.798z"/>
<g>
</g>
<g>
</g>
<g>
</g>
<g>
</g>
<g>
</g>
<g>
</g>
<g>
</g>
<g>
</g>
<g>
</g>
<g>
</g>
<g>
</g>
<g>
</g>
<g>
</g>
<g>
</g>
<g>
</g>
</svg>
