<?xml version="1.0" encoding="iso-8859-1"?>
<!-- Generator: Adobe Illustrator 19.0.0, SVG Export Plug-In . SVG Version: 6.00 Build 0)  -->
<svg version="1.1" id="Capa_1" xmlns="http://www.w3.org/2000/svg" xmlns:xlink="http://www.w3.org/1999/xlink" x="0px" y="0px"
	 viewBox="0 0 468.293 468.293" style="enable-background:new 0 0 468.293 468.293;" xml:space="preserve">
<circle style="fill:#64798A;" cx="234.146" cy="234.146" r="234.146"/>
<circle style="fill:#E1E6E9;" cx="234.146" cy="234.146" r="202.927"/>
<path style="fill:#27A2DB;" d="M147.483,145.595c-4.012,0-7.951-1.927-10.366-5.506c-3.854-5.72-2.348-13.476,3.372-17.335
	l29.11-19.634c10.53-7.104,23.195-9.689,35.695-7.268c12.482,2.421,23.268,9.561,30.384,20.098
	c3.854,5.72,2.348,13.482-3.366,17.341c-5.732,3.854-13.476,2.348-17.341-3.366c-3.378-5.012-8.506-8.402-14.439-9.555
	c-5.902-1.134-11.951,0.073-16.963,3.457l-29.116,19.634C152.313,144.906,149.886,145.595,147.483,145.595z"/>
<path style="fill:#D15241;" d="M206.63,295.04c-37.402,0-67.835-30.433-67.835-67.835c0-6.896,5.591-12.488,12.488-12.488
	c6.896,0,12.488,5.591,12.488,12.488c0,23.634,19.226,42.86,42.86,42.86c6.896,0,12.488,5.591,12.488,12.488
	C219.117,289.449,213.526,295.04,206.63,295.04z"/>
<path style="fill:#E56353;" d="M256.526,210.266c-16.207,0-32.463-5.756-45.415-17.439c-5.122-4.622-5.524-12.518-0.909-17.64
	c4.622-5.122,12.506-5.53,17.64-0.909c17.543,15.835,44.707,14.439,60.53-3.104c4.622-5.122,12.512-5.53,17.64-0.909
	c5.122,4.622,5.524,12.518,0.909,17.64C293.55,202.723,275.069,210.266,256.526,210.266z"/>
<path style="fill:#DC8744;" d="M241.008,337.589c-6.896,0-12.488-5.591-12.488-12.488s5.591-12.488,12.488-12.488
	c12.476,0,22.622-10.146,22.622-22.622c0-12.476-10.146-22.628-22.622-22.628c-6.896,0-12.488-5.591-12.488-12.488
	s5.591-12.488,12.488-12.488c26.244,0,47.598,21.354,47.598,47.604C288.605,316.235,267.252,337.589,241.008,337.589z"/>
<g>
	<circle style="fill:#44C4A1;" cx="301.699" cy="114.888" r="15.61"/>
	<circle style="fill:#44C4A1;" cx="97.218" cy="213.417" r="15.61"/>
	<circle style="fill:#44C4A1;" cx="163.078" cy="353.218" r="15.61"/>
	<circle style="fill:#44C4A1;" cx="301.699" cy="376.969" r="15.61"/>
	<circle style="fill:#44C4A1;" cx="359.711" cy="254.876" r="15.61"/>
</g>
<g>
</g>
<g>
</g>
<g>
</g>
<g>
</g>
<g>
</g>
<g>
</g>
<g>
</g>
<g>
</g>
<g>
</g>
<g>
</g>
<g>
</g>
<g>
</g>
<g>
</g>
<g>
</g>
<g>
</g>
</svg>
